<svg width="240" height="240" viewBox="0 0 240 240" xmlns="http://www.w3.org/2000/svg">
<rect width="240" height="240" fill="#ffffff"/>
<g fill="#171A21">
<rect x="16" y="16" width="56" height="56"/>
<rect x="30" y="30" width="28" height="28" fill="#ffffff"/>
<rect x="40" y="40" width="8" height="8" fill="#171A21"/>
<rect x="168" y="16" width="56" height="56"/>
<rect x="182" y="30" width="28" height="28" fill="#ffffff"/>
<rect x="192" y="40" width="8" height="8" fill="#171A21"/>
<rect x="16" y="168" width="56" height="56"/>
<rect x="30" y="182" width="28" height="28" fill="#ffffff"/>
<rect x="40" y="192" width="8" height="8" fill="#171A21"/>
<rect x="88" y="16" width="8" height="8"/>
<rect x="104" y="16" width="8" height="8"/>
<rect x="120" y="24" width="8" height="8"/>
<rect x="96" y="32" width="8" height="8"/>
<rect x="112" y="40" width="8" height="8"/>
<rect x="88" y="48" width="8" height="8"/>
<rect x="128" y="48" width="8" height="8"/>
<rect x="104" y="56" width="8" height="8"/>
<rect x="88" y="88" width="8" height="8"/>
<rect x="104" y="88" width="8" height="8"/>
<rect x="120" y="88" width="8" height="8"/>
<rect x="136" y="88" width="8" height="8"/>
<rect x="152" y="96" width="8" height="8"/>
<rect x="168" y="96" width="8" height="8"/>
<rect x="184" y="104" width="8" height="8"/>
<rect x="200" y="96" width="8" height="8"/>
<rect x="88" y="104" width="8" height="8"/>
<rect x="120" y="104" width="8" height="8"/>
<rect x="96" y="112" width="8" height="8"/>
<rect x="112" y="120" width="8" height="8"/>
<rect x="88" y="128" width="8" height="8"/>
<rect x="104" y="136" width="8" height="8"/>
<rect x="136" y="120" width="8" height="8"/>
<rect x="152" y="128" width="8" height="8"/>
<rect x="168" y="136" width="8" height="8"/>
<rect x="184" y="128" width="8" height="8"/>
<rect x="200" y="120" width="8" height="8"/>
<rect x="216" y="112" width="8" height="8"/>
<rect x="88" y="152" width="8" height="8"/>
<rect x="104" y="160" width="8" height="8"/>
<rect x="120" y="168" width="8" height="8"/>
<rect x="136" y="152" width="8" height="8"/>
<rect x="152" y="168" width="8" height="8"/>
<rect x="168" y="160" width="8" height="8"/>
<rect x="184" y="176" width="8" height="8"/>
<rect x="200" y="168" width="8" height="8"/>
<rect x="216" y="176" width="8" height="8"/>
<rect x="96" y="184" width="8" height="8"/>
<rect x="112" y="200" width="8" height="8"/>
<rect x="128" y="192" width="8" height="8"/>
<rect x="144" y="200" width="8" height="8"/>
<rect x="160" y="208" width="8" height="8"/>
<rect x="176" y="200" width="8" height="8"/>
<rect x="192" y="216" width="8" height="8"/>
<rect x="208" y="200" width="8" height="8"/>
</g>
</svg>
